<svg xmlns="http://www.w3.org/2000/svg" viewBox="0 0 100 100">
  <rect width="100" height="100" rx="20" fill="#1a1a2e"/>
  <g transform="translate(18,12) scale(0.65)" fill="none" stroke="#4ecca3" stroke-width="5" stroke-linecap="round" stroke-linejoin="round">
    <!-- palm -->
    <path d="M45 115 C30 115 15 100 15 80 L15 55" fill="#4ecca3" opacity="0.15"/>
    <!-- pinky finger -->
    <path d="M15 55 L15 20 C15 14 22 14 22 20 L22 55"/>
    <!-- ring finger (folded) -->
    <path d="M30 55 C30 45 30 42 33 40 C36 42 36 45 36 55"/>
    <!-- middle finger (folded) -->
    <path d="M44 55 C44 43 44 40 47 38 C50 40 50 43 50 55"/>
    <!-- index finger -->
    <path d="M58 55 L58 15 C58 9 65 9 65 15 L65 55"/>
    <!-- thumb -->
    <path d="M72 55 L80 30 C82 24 89 26 87 32 L78 55"/>
    <!-- palm base -->
    <path d="M15 55 Q15 90 30 105 Q40 115 55 115 Q70 115 78 105 Q88 90 78 55" fill="#4ecca3" opacity="0.15"/>
    <path d="M15 55 L78 55" opacity="0.3"/>
  </g>
</svg>
