<svg xmlns="http://www.w3.org/2000/svg" viewBox="0 0 600 600">
  <!-- Rounded square background -->
  <rect width="600" height="600" rx="110" fill="#3438ad"/>
  <!-- Icon path (white on blue) -->
  <g transform="translate(0,600) scale(0.1,-0.1)" fill="#ffffff" stroke="none">
    <path d="M1835 4973 c-314 -29 -594 -237 -705 -525 -61 -156 -59 -120 -60
-1449 0 -1067 2 -1227 16 -1300 63 -336 318 -594 656 -663 68 -14 220 -16
1263 -16 1043 0 1195 2 1263 16 270 55 500 250 606 510 57 141 57 135 54 1494
l-4 1245 -22 79 c-84 290 -304 506 -602 589 -74 21 -88 21 -1250 22 -646 1
-1193 0 -1215 -2z m1517 -688 c265 -35 314 -43 383 -67 84 -28 383 -186 395
-208 12 -23 13 -70 0 -90 -7 -12 -12 -10 -29 11 -33 43 -351 190 -450 209 -70
13 -395 40 -485 40 -104 0 -151 -18 -336 -126 -245 -142 -373 -214 -489 -275
-74 -38 -116 -67 -149 -104 -54 -60 -95 -145 -96 -200 -1 -36 2 -40 26 -43 23
-3 28 2 43 50 41 124 86 174 215 238 47 24 207 113 355 198 149 86 291 164
318 174 58 22 116 22 356 3 178 -15 263 -30 342 -62 37 -14 39 -18 39 -58 0
-55 23 -83 102 -125 47 -25 76 -34 115 -34 31 -1 53 -6 53 -12 0 -20 -48 -55
-95 -70 -95 -28 -199 -16 -334 40 l-64 26 -81 -16 c-60 -13 -108 -15 -189 -11
l-108 7 -85 -74 c-69 -61 -164 -124 -263 -175 -8 -4 -25 -42 -38 -83 -13 -42
-39 -98 -58 -124 -80 -112 -90 -135 -88 -199 3 -106 76 -293 160 -407 21 -30
30 -48 21 -48 -20 0 -117 66 -166 114 -35 33 -46 39 -60 30 -35 -22 -27 -47
34 -101 70 -63 165 -115 254 -139 87 -24 304 -23 460 1 150 23 315 23 399 1
104 -27 200 -88 232 -147 9 -17 3 -16 -32 8 -34 22 -56 28 -113 31 -96 5 -149
-10 -178 -51 -19 -27 -23 -45 -23 -107 l0 -75 -60 -7 c-300 -38 -521 -91 -696
-169 -196 -86 -323 -122 -510 -143 -64 -8 -134 -22 -155 -32 -41 -19 -135
-107 -196 -183 l-36 -45 -63 18 c-96 26 -216 88 -291 150 -110 92 -206 235
-239 357 l-12 45 58 59 c145 150 227 290 305 520 60 174 200 619 246 777 60
210 79 231 301 338 90 43 218 110 286 148 67 38 167 94 222 124 239 133 240
133 547 93z m608 -345 c30 -16 64 -35 75 -44 19 -15 19 -15 -15 -15 -60 -1
-160 54 -160 86 0 18 24 11 100 -27z m-134 -589 c-19 -62 -32 -119 -29 -127 4
-11 27 -14 99 -14 l94 0 -77 -91 c-43 -51 -113 -135 -157 -188 -43 -53 -80
-98 -82 -100 -2 -2 8 32 21 75 58 183 55 172 37 190 -13 14 -30 16 -100 11
l-83 -6 43 54 c150 186 263 322 266 316 1 -4 -13 -58 -32 -120z m103 -975 c11
-10 26 -34 32 -54 10 -30 9 -37 -5 -47 -16 -12 -223 -31 -233 -21 -3 3 -6 30
-7 61 -1 77 13 88 115 83 58 -2 82 -8 98 -22z"/>
  </g>
</svg>
